<svg xmlns="http://www.w3.org/2000/svg" width="25" height="24" fill="none" viewBox="0 0 25 24" id="youtube-tv">
  <rect width="24" height="24" x=".463" fill="url(#paint0_linear_302_5249)" rx="8"></rect>
  <path fill="#fff" fill-rule="evenodd" d="M19.2727 6H4.72727C4.32561 6 4 6.32561 4 6.72727V15.4545C4 15.8562 4.32561 16.1818 4.72727 16.1818H19.2727C19.6744 16.1818 20 15.8562 20 15.4545V6.72727C20 6.32561 19.6744 6 19.2727 6ZM10.1818 8.54545L14.9091 11.0909L10.1818 13.6364V8.54545ZM8.36364 17.4545C8.06239 17.4545 7.81818 17.6988 7.81818 18C7.81818 18.3012 8.06239 18.5455 8.36364 18.5455H15.6364C15.9376 18.5455 16.1818 18.3012 16.1818 18C16.1818 17.6988 15.9376 17.4545 15.6364 17.4545H8.36364Z" clip-rule="evenodd"></path>
  <defs>
    <linearGradient id="paint0_linear_302_5249" x1=".463" x2="24.463" y1="12" y2="12" gradientUnits="userSpaceOnUse">
      <stop stop-color="#ED6D6B"></stop>
      <stop offset="1" stop-color="#F0B076"></stop>
    </linearGradient>
  </defs>
</svg>
